<?xml version="1.0" encoding="UTF-8"?>
<svg width="270px" height="76px" viewBox="0 0 270 76" version="1.1" xmlns="http://www.w3.org/2000/svg" xmlns:xlink="http://www.w3.org/1999/xlink">
    <title>33228A3B-0608-4E92-BBEC-12D616C7916B</title>
    <defs>
        <polygon id="path-1" points="0 75.7690747 270 75.7690747 270 0 0 0"></polygon>
    </defs>
    <g id="HOMEPAGE" stroke="none" stroke-width="1" fill="none" fill-rule="evenodd">
        <g id="HOMEPAGE-DESKTOP---1440" transform="translate(-150.000000, -68.000000)">
            <g id="logo-unimes" transform="translate(150.000000, 68.000000)">
                <path d="M107.611438,45.3113126 C106.108335,45.7487897 104.172209,46.1541911 101.799497,46.5275168 C99.4258942,46.9044065 96.9355714,47.0906238 94.3267466,47.0906238 C91.6769362,47.0906238 89.4717308,46.7360089 87.7138034,46.0249973 C85.9532031,45.3113126 84.5596915,44.3134015 83.5314867,43.0285909 C82.5032818,41.7437804 81.7717773,40.212165 81.3369732,38.4319629 C80.9012781,36.6526517 80.685658,34.6960331 80.685658,32.5612161 L80.685658,15.1824158 L89.5216264,15.1824158 L89.5216264,31.4920256 C89.5216264,34.3405273 89.897625,36.396937 90.6487313,37.6603637 C91.3989466,38.9273544 92.8040411,39.5590678 94.8595598,39.5590678 C95.4921642,39.5590678 96.1639722,39.5296651 96.8767659,39.4690776 C97.5886686,39.4111631 98.2203819,39.3425568 98.774579,39.2614765 L98.774579,15.1824158 L107.611438,15.1824158 L107.611438,45.3113126 Z" id="Fill-1" fill="#FFFFFF"></path>
                <path d="M114.727614,16.2514281 C116.229826,15.8148419 118.166843,15.4112225 120.539555,15.0352239 C122.913158,14.6583342 125.403481,14.4721169 128.012306,14.4721169 C130.661225,14.4721169 132.865539,14.8169308 134.625249,15.5092317 C136.384067,16.2015325 137.77847,17.1807328 138.807566,18.4441595 C139.834879,19.7111503 140.566384,21.2115809 141.002079,22.9516884 C141.436883,24.6917959 141.653394,26.6297037 141.653394,28.7645207 L141.653394,46.3803249 L132.817426,46.3803249 L132.817426,29.8310382 C132.817426,26.9852095 132.440536,24.9680035 131.690321,23.783875 C130.938324,22.5961826 129.53412,22.0036729 127.479492,22.0036729 C126.845997,22.0036729 126.17508,22.0330756 125.462286,22.0936631 C124.750384,22.1515776 124.11867,22.2201839 123.564473,22.2985912 L123.564473,46.3803249 L114.727614,46.3803249 L114.727614,16.2514281 Z" id="Fill-3" fill="#FFFFFF"></path>
                <mask id="mask-2" fill="white">
                    <use xlink:href="#path-1"></use>
                </mask>
                <g id="Clip-6"></g>
                <path d="M148.474919,46.3805922 L157.311778,46.3805922 L157.311778,15.1833959 L148.474919,15.1833959 L148.474919,46.3805922 Z M162.234509,8.1240657 L158.962786,12.0390849 L153.012741,7.47096851 L147.062696,12.0390849 L143.670689,8.1240657 L153.012741,0 L162.234509,8.1240657 Z" id="Fill-5" fill="#FFFFFF" mask="url(#mask-2)"></path>
                <path d="M181.568235,29.8309491 C181.568235,26.9851204 181.202037,24.9679144 180.471424,23.7837859 C179.738137,22.5960935 178.483621,22.0035838 176.7052,22.0035838 C176.151003,22.0035838 175.577204,22.0329865 174.984695,22.093574 C174.391294,22.1514885 173.819277,22.2200948 173.26508,22.2985021 L173.26508,46.3802358 L164.428221,46.3802358 L164.428221,16.251339 C165.178436,16.0535387 166.058736,15.8459376 167.067339,15.6276445 C168.075942,15.4120244 169.143351,15.2115512 170.269565,15.0351348 C171.39667,14.8560454 172.554068,14.7188326 173.739979,14.6190415 C174.925889,14.5219234 176.091307,14.4720278 177.238905,14.4720278 C179.492224,14.4720278 181.320539,14.7589272 182.725634,15.3300532 C184.128946,15.9038521 185.284563,16.585461 186.194266,17.3784439 C187.458584,16.466959 188.911792,15.7568384 190.55389,15.2427359 C192.194207,14.7295245 193.70622,14.4720278 195.090822,14.4720278 C197.582036,14.4720278 199.628644,14.8168417 201.229757,15.5091426 C202.831761,16.2014434 204.10588,17.1806437 205.054786,18.4440704 C206.003693,19.7110612 206.65679,21.2114918 207.012296,22.9515993 C207.367802,24.6917068 207.546891,26.6296146 207.546891,28.7644316 L207.546891,46.3802358 L198.70825,46.3802358 L198.70825,29.8309491 C198.70825,26.9851204 198.342943,24.9679144 197.612329,23.7837859 C196.879934,22.5960935 195.624526,22.0035838 193.846106,22.0035838 C193.370316,22.0035838 192.708309,22.1220857 191.858303,22.3590896 C191.007405,22.5960935 190.306194,22.8936848 189.753779,23.2491907 C190.029987,24.1571116 190.207294,25.1158191 190.286593,26.1244221 C190.365891,27.1321341 190.405094,28.2120165 190.405094,29.3569413 L190.405094,46.3802358 L181.568235,46.3802358 L181.568235,29.8309491 Z" id="Fill-7" fill="#FFFFFF" mask="url(#mask-2)"></path>
                <path d="M233.64191,27.6378612 C233.602707,26.8876459 233.473513,26.1552504 233.256111,25.4424568 C233.038709,24.7314451 232.701914,24.0997317 232.247508,23.5437527 C231.793993,22.9913376 231.220194,22.5360406 230.528784,22.1805348 C229.836483,21.825029 228.975785,21.6486125 227.948471,21.6486125 C226.960361,21.6486125 226.109463,21.81701 225.397561,22.1511321 C224.686549,22.4879271 224.093148,22.9334231 223.61914,23.4858382 C223.144242,24.0391443 222.778044,24.6815495 222.521438,25.413054 C222.263051,26.1454495 222.076833,26.8876459 221.958331,27.6378612 L233.64191,27.6378612 Z M212.884468,31.0182851 C212.884468,28.2508638 213.30858,25.8291473 214.158587,23.7522448 C215.008593,21.6771243 216.125006,19.9477087 217.509608,18.563107 C218.893319,17.1802873 220.48463,16.1306986 222.284434,15.419687 C224.082456,14.7086753 225.932156,14.3531695 227.829969,14.3531695 C232.257309,14.3531695 235.757125,15.7065864 238.328529,18.4152023 C240.897259,21.1247092 242.182069,25.1074437 242.182069,30.3651879 C242.182069,30.8810724 242.162467,31.4450703 242.123264,32.0553999 C242.08406,32.6692934 242.043966,33.2136896 242.004762,33.6876974 L221.958331,33.6876974 C222.155241,35.5071032 223.006138,36.9496193 224.50746,38.0161369 C226.011454,39.0853273 228.027769,39.6190316 230.557296,39.6190316 C232.179792,39.6190316 233.769322,39.4693449 235.332122,39.1744265 C236.89314,38.8768352 238.169041,38.5106375 239.157151,38.0767243 L240.343062,45.2536654 C239.869945,45.4906693 239.236449,45.7276732 238.447031,45.9637861 C237.654048,46.20079 236.774638,46.4092822 235.807021,46.5883716 C234.836731,46.764788 233.799616,46.9144747 232.693004,47.0329766 C231.585501,47.1514786 230.478888,47.209393 229.371385,47.209393 C226.563869,47.209393 224.123442,46.7932997 222.04743,45.9637861 C219.971419,45.1351635 218.250913,43.9973666 216.887695,42.5548505 C215.523587,41.1123343 214.514984,39.4007385 213.862777,37.4236271 C213.20968,35.4465157 212.884468,33.3116987 212.884468,31.0182851 L212.884468,31.0182851 Z" id="Fill-8" fill="#FFFFFF" mask="url(#mask-2)"></path>
                <path d="M256.772955,40.0327192 C258.394561,40.0327192 259.541268,39.8750136 260.213967,39.5587114 C260.884884,39.2433002 261.22257,38.6294067 261.22257,37.7214858 C261.22257,37.0078011 260.786875,36.3867797 259.916375,35.8521844 C259.045876,35.3175892 257.721862,34.7143875 255.943442,34.0434705 C254.55884,33.5302591 253.304323,32.9956638 252.177218,32.4423578 C251.049222,31.8899427 250.091406,31.2261536 249.300205,30.4545545 C248.509004,29.6838463 247.896892,28.7643425 247.462088,27.696043 C247.026393,26.6295255 246.809882,25.3447149 246.809882,23.8416113 C246.809882,20.9164843 247.896892,18.6025779 250.071804,16.9016741 C252.245825,15.2034432 255.231539,14.3534368 259.028056,14.3534368 C260.924978,14.3534368 262.744384,14.5218343 264.484492,14.8559563 C266.222817,15.1927513 267.606528,15.558949 268.635624,15.9536585 L267.093317,22.8330083 C266.065112,22.4775025 264.947808,22.1620913 263.741404,21.8849927 C262.535892,21.6087852 261.181584,21.4697904 259.679372,21.4697904 C256.911059,21.4697904 255.527349,22.2404986 255.527349,23.7836968 C255.527349,24.1392027 255.587045,24.4546139 255.705547,24.7317124 C255.824049,25.0079199 256.061944,25.2761085 256.41745,25.5318233 C256.772955,25.78932 257.257655,26.0690915 257.870658,26.3666828 C258.482769,26.6660562 259.26506,26.9957232 260.213967,27.3512291 C262.150093,28.0693687 263.751205,28.7777074 265.017305,29.4753542 C266.282514,30.173001 267.280425,30.9258893 268.011929,31.7340191 C268.744325,32.5430399 269.258427,33.4402689 269.555128,34.4274881 C269.850937,35.4147073 269.999733,36.5578501 269.999733,37.8578076 C269.999733,40.9361852 268.842334,43.2661294 266.53021,44.8422944 C264.217194,46.4193504 260.94458,47.2096603 256.71415,47.2096603 C253.945838,47.2096603 251.643514,46.9726564 249.804506,46.4986487 C247.96639,46.0246409 246.69138,45.6299314 245.978586,45.3109562 L247.462088,38.1349061 C248.964301,38.7291978 250.505717,39.1925137 252.088119,39.5301997 C253.668739,39.8669947 255.231539,40.0327192 256.772955,40.0327192" id="Fill-9" fill="#FFFFFF" mask="url(#mask-2)"></path>
                <path d="M82.283385,70.4563562 C81.1438061,69.3167774 80.5735712,67.6443853 80.5735712,65.4382889 L80.5735712,55.8369584 L83.4496936,55.8369584 L83.4496936,65.5986675 C83.4496936,66.9868331 83.7731237,68.0390948 84.4226569,68.7581254 C85.0712992,69.474483 86.0380256,69.8326618 87.3210541,69.8326618 C88.57468,69.8326618 89.5298235,69.47181 90.1864846,68.7447605 C90.8422548,68.0212749 91.1710309,66.9734682 91.1710309,65.5986675 L91.1710309,55.8369584 L94.0480443,55.8369584 L94.0480443,65.4382889 C94.0480443,67.6292384 93.4733544,69.2980665 92.3257566,70.4429914 C91.1790498,71.5914801 89.5102217,72.165279 87.3210541,72.165279 C85.1015929,72.165279 83.4220728,71.5959351 82.283385,70.4563562" id="Fill-10" fill="#FFFFFF" mask="url(#mask-2)"></path>
                <polygon id="Fill-11" fill="#FFFFFF" mask="url(#mask-2)" points="117.394531 55.8368693 117.394531 71.9620437 115.21962 71.9620437 106.524428 60.6624823 106.524428 71.9620437 103.806902 71.9620437 103.806902 55.8368693 105.980032 55.8368693 114.65384 67.1150469 114.65384 55.8368693"></polygon>
                <polygon id="Fill-12" fill="#FFFFFF" mask="url(#mask-2)" points="127.290691 71.9618655 130.211363 71.9618655 130.211363 55.8366911 127.290691 55.8366911"></polygon>
                <polygon id="Fill-13" fill="#FFFFFF" mask="url(#mask-2)" points="154.872509 55.8368693 147.694677 71.9620437 145.31751 71.9620437 138.137896 55.8368693 141.171724 55.8368693 146.539951 68.2920474 151.906396 55.8368693"></polygon>
                <polygon id="Fill-14" fill="#FFFFFF" mask="url(#mask-2)" points="162.798329 55.8368693 173.57666 55.8368693 173.57666 58.1481027 165.651286 58.1481027 165.651286 62.608409 173.101761 62.608409 173.101761 64.9196424 165.651286 64.9196424 165.651286 69.6508103 173.57666 69.6508103 173.57666 71.9620437 162.798329 71.9620437"></polygon>
                <path d="M189.156993,62.9951886 C190.25915,62.9951886 191.073517,62.7902605 191.602766,62.3821861 C192.130233,61.9741117 192.394858,61.3548722 192.394858,60.5253586 C192.394858,59.7092099 192.134688,59.1042263 191.614349,58.7041708 C191.093119,58.3041154 190.274297,58.1036422 189.156993,58.1036422 L185.511053,58.1036422 L185.511053,62.9951886 L189.156993,62.9951886 Z M195.928533,71.9621328 L192.848373,71.9621328 L190.788399,66.5939056 C190.606637,66.096732 190.326865,65.7492451 189.949085,65.5514449 C189.571304,65.3563176 189.080367,65.2591995 188.478057,65.2591995 L185.556494,65.2591995 L185.556494,71.9621328 L182.658097,71.9621328 L182.658097,55.8369584 L189.565067,55.8369584 C191.39071,55.8369584 192.779767,56.2370138 193.731346,57.0371247 C194.682926,57.8381265 195.157824,58.9857243 195.157824,60.480809 C195.157824,61.5526725 194.87538,62.4605934 194.3096,63.2081357 C193.742929,63.9556781 192.939254,64.4876004 191.897684,64.8065755 C192.848373,65.0017028 193.535328,65.6672739 193.957658,66.7997248 L195.928533,71.9621328 Z" id="Fill-15" fill="#FFFFFF" mask="url(#mask-2)"></path>
                <path d="M206.855392,71.6673927 C205.776401,71.3359436 204.858679,70.8592629 204.104008,70.2400234 L205.101029,68.1105523 C205.885102,68.7003891 206.703923,69.1343022 207.556603,69.4140737 C208.410173,69.6929542 209.342151,69.831949 210.354318,69.831949 C211.470731,69.831949 212.334993,69.6377127 212.947105,69.2456762 C213.558325,68.8527487 213.863936,68.3003336 213.863936,67.5919949 C213.863936,66.9861203 213.5806,66.5228044 213.01482,66.1993743 C212.448149,65.8723802 211.516172,65.5676609 210.218887,65.2807615 C208.195444,64.8432844 206.722634,64.2775044 205.802239,63.5825306 C204.880954,62.8875568 204.421202,61.8762808 204.421202,60.5495936 C204.421202,59.5962321 204.676916,58.7515716 205.190128,58.0111572 C205.703339,57.2716338 206.433062,56.689816 207.376622,56.2683767 C208.319292,55.8451555 209.410757,55.6339904 210.647454,55.6339904 C211.780796,55.6339904 212.856224,55.8050608 213.875519,56.1445288 C214.894813,56.4848878 215.728782,56.9562226 216.378315,57.5585332 L215.40357,59.6888953 C213.969073,58.5404065 212.383998,57.9666076 210.647454,57.9666076 C209.606775,57.9666076 208.783499,58.1822277 208.179406,58.6116859 C207.575314,59.043817 207.274158,59.6283078 207.274158,60.3678312 C207.274158,61.0022176 207.542347,61.4842443 208.078724,61.8156933 C208.61421,62.1471424 209.531932,62.4580986 210.829217,62.7449981 C212.173724,63.0613003 213.266971,63.4061142 214.113413,63.7740939 C214.958965,64.1456376 215.607607,64.6196454 216.060231,65.2014632 C216.513746,65.783281 216.740058,66.5121125 216.740058,67.3861758 C216.740058,68.3529022 216.483452,69.1948897 215.970241,69.9112473 C215.456138,70.6302779 214.716615,71.182693 213.75078,71.5782935 C212.784053,71.97033 211.644474,72.1645662 210.332043,72.1645662 C209.093564,72.1645662 207.934383,71.9988417 206.855392,71.6673927" id="Fill-16" fill="#FFFFFF" mask="url(#mask-2)"></path>
                <polygon id="Fill-17" fill="#FFFFFF" mask="url(#mask-2)" points="225.844215 71.9618655 228.764887 71.9618655 228.764887 55.8366911 225.844215 55.8366911"></polygon>
                <polygon id="Fill-18" fill="#FFFFFF" mask="url(#mask-2)" points="242.41943 58.2379147 237.164358 58.2379147 237.164358 55.8366911 250.638831 55.8366911 250.638831 58.2379147 245.362376 58.2379147 245.362376 71.9618655 242.41943 71.9618655"></polygon>
                <path d="M263.864183,54.4573462 L266.1968,50.9450555 L268.93571,50.9450555 L265.697845,54.4573462 L263.864183,54.4573462 Z M259.041243,55.836602 L269.819574,55.836602 L269.819574,58.1487264 L261.893309,58.1487264 L261.893309,62.6081417 L269.343784,62.6081417 L269.343784,64.9193751 L261.893309,64.9193751 L261.893309,69.650543 L269.819574,69.650543 L269.819574,71.9626674 L259.041243,71.9626674 L259.041243,55.836602 Z" id="Fill-19" fill="#FFFFFF" mask="url(#mask-2)"></path>
                <path d="M50.9773985,63.323341 C48.6839849,65.8136639 45.9441843,67.7685005 42.8257121,69.1441922 C41.6941521,69.6422568 40.5189336,70.0538951 39.3152033,70.3737613 C38.9418776,70.4726614 38.9579155,71.0010197 39.3356961,71.075863 L63.1991367,75.7419885 C64.3645544,75.9504806 65.3829583,74.9383136 65.1815941,73.771114 L61.1890586,50.6587797 C61.0482819,49.8898536 61.0955045,49.1102355 61.3102335,48.378731 C61.3770579,48.152419 61.1944046,47.92878 60.9582917,47.92878 L59.3776717,47.92878 C58.5713239,47.92878 57.8683312,48.49456 57.7132986,49.285761 C57.3355179,51.2049579 56.8517092,52.9949609 56.200394,54.7083387 C54.9752799,57.9542228 53.2164616,60.854402 50.9773985,63.323341" id="Fill-20" fill="#FFFFFF" mask="url(#mask-2)"></path>
                <path d="M65.3388542,13.4906 C65.5473463,12.3260734 64.5369613,11.3076695 63.3706527,11.5072517 L45.9072081,14.4974211 C45.0901684,14.6381978 44.4914217,15.3456455 44.4887488,16.1751591 L44.4014315,44.3376365 C44.4014315,46.3477146 44.0842384,48.1591015 43.4329231,49.8760432 C42.8047737,51.5359614 41.9654592,52.93571 40.865084,54.1536961 C39.9001396,55.1979388 38.7106652,56.0354714 37.3135896,56.6538199 C35.9378979,57.2579125 34.4392492,57.5563948 32.7321084,57.5661958 L32.6777579,57.5661958 L32.6260803,57.5661958 C30.9162665,57.5563948 29.4185089,57.2579125 28.0472721,56.6538199 C26.6501965,56.0372534 25.4607221,55.2006118 24.5055786,54.167952 C23.3936205,52.937492 22.551633,51.5386344 21.9208106,49.8760432 C21.2721684,48.1564285 20.9567572,46.3459326 20.9567572,44.3394185 L20.979032,16.298116 C20.979923,15.4757304 20.3936502,14.7700646 19.5846294,14.619487 L2.16127946,11.3798398 C0.993188861,11.1633287 -0.0341249963,12.1754957 0.167239212,13.3471503 L4.12948095,36.4425558 C4.26669373,37.2123729 4.26045678,37.990209 4.05998357,38.7208225 C3.99850511,38.9453525 4.18294047,39.1636455 4.41638039,39.1618636 L5.61209175,39.1538446 C6.54496045,39.1404797 7.29517577,38.3804635 7.29517577,37.4475948 L7.30230371,20.4180634 C7.30230371,19.6509192 7.51881478,18.882884 7.99638653,18.2823554 C8.64324678,17.4679886 9.58948035,17.0287295 10.5713536,17.0287295 C10.7664809,17.0287295 10.9642811,17.0447674 11.1594084,17.0804071 L14.572799,17.6969736 C16.1293621,17.9785271 17.2618131,19.333726 17.2618131,20.9161279 L17.2618131,44.3394185 C17.2618131,46.7664809 17.6663235,49.0688044 18.4664343,51.1813466 C19.2638723,53.2903248 20.3410817,55.0758729 21.7559771,56.636891 C23.0969201,58.0883171 24.6704121,59.2029482 26.5512964,60.0333528 C28.4170338,60.8539565 30.419984,61.2557939 32.6804308,61.2584669 C34.9382047,61.2557939 36.9420459,60.8539565 38.8024374,60.0333528 C40.6886676,59.2029482 42.2594866,58.0883171 43.6093396,56.6279811 C45.017998,55.0758729 46.0925345,53.2903248 46.8899724,51.1831286 C47.6918652,49.0688044 48.0963756,46.7664809 48.0963756,44.3394185 L48.0963756,20.9161279 C48.0963756,19.331944 49.2306085,17.9758541 50.7889537,17.6951916 L54.2014533,17.0804071 C55.3927097,16.868351 56.6204968,17.318302 57.3929869,18.320668 C57.8491748,18.9122868 58.054103,19.6607201 58.054103,20.4082625 L58.054103,37.3388938 C58.054103,38.2726535 58.8034273,39.0326697 59.737187,39.0451436 L60.9640831,39.0620724 C61.2108879,39.0656364 61.3766124,38.8295235 61.313352,38.5907376 C61.1306986,37.8993278 61.0968409,37.1687143 61.2260348,36.4443377 L65.3388542,13.4906 Z" id="Fill-21" fill="#FFFFFF" mask="url(#mask-2)"></path>
                <path d="M54.9213749,39.0222451 L54.9213749,20.71414 C54.9213749,20.494956 54.7280296,20.3256675 54.5106276,20.3541792 L52.8159606,20.5804912 C51.9713002,20.6927562 51.3386958,21.4117868 51.3351318,22.2635753 L51.2291038,44.3396858 C51.2291038,47.1480928 50.754205,49.82196 49.8177723,52.290899 C48.8795577,54.7723119 47.604548,56.8839631 45.918791,58.7398996 C44.2633278,60.5343576 42.3512588,61.8913386 40.0649731,62.8972686 C37.8125452,63.8925068 35.4113215,64.3816614 32.7249804,64.3905713 L32.7062696,64.3905713 L32.6519191,64.3905713 L32.6332083,64.3905713 C29.9477582,64.3816614 27.5465345,63.8925068 25.2887606,62.8972686 C23.0078209,61.8913386 21.0957519,60.5343576 19.4474166,58.7514825 C17.7536407,56.8812902 16.4768491,54.7723119 15.5386344,52.289117 C14.6048747,49.82196 14.1299759,47.1480928 14.1299759,44.3396858 L14.1299759,22.295651 C14.1299759,21.4910851 13.566869,20.7952203 12.780123,20.6268228 L10.868945,20.2472602 C10.644415,20.2027106 10.4350318,20.3746721 10.4350318,20.602766 L10.4350318,39.0222451 C10.4350318,40.830068 8.97024086,42.29575 7.16241795,42.29575 L4.41281643,42.296641 C4.21234321,42.296641 4.04929166,42.4596925 4.04929166,42.6601657 L4.04929166,44.4332399 C4.04929166,44.6337132 4.21234321,44.7958737 4.41281643,44.7958737 L7.39853085,44.7958737 C9.04241122,44.7958737 10.4350318,46.0494996 10.637287,47.7076358 C10.8867648,49.7462257 11.3732465,51.728683 12.0815852,53.5988754 C13.1748324,56.4821257 14.7269406,59.0455099 16.6978151,61.2204215 C18.6847274,63.3748404 21.0770411,65.0801992 23.7981309,66.2794745 C25.2228272,66.9076239 26.7330588,67.3780677 28.278039,67.6738771 C29.7267921,67.9527576 30.8084565,69.3195395 30.9599252,70.7362168 C30.980418,70.9268892 31.1274317,71.0774668 31.318995,71.0774668 L34.0383028,71.0792527 C34.230757,71.0801398 34.3786617,70.9286711 34.3982636,70.7371078 C34.5479502,69.3213214 35.6278326,67.9527576 37.0828227,67.6738771 C38.6278029,67.3780677 40.1353615,66.9076239 41.5636218,66.2794745 C44.2838206,65.0775262 46.6734613,63.3730584 48.6683926,61.2115116 C50.6321391,59.0428369 52.1860292,56.4767798 53.2730396,53.6006574 C53.9849422,51.7215551 54.4723149,49.7390977 54.7217927,47.7076358 C54.9240479,46.0494996 56.3157775,44.7958737 57.9596579,44.7958737 L60.9658651,44.7958737 C61.1663383,44.7958737 61.3293899,44.6337132 61.3293899,44.4332399 L61.3293899,42.6601657 C61.3293899,42.4596925 61.1663383,42.296641 60.9658651,42.296641 L58.1939888,42.29575 C56.3861659,42.29575 54.9213749,40.830068 54.9213749,39.0222451" id="Fill-22" fill="#FFFFFF" mask="url(#mask-2)"></path>
                <path d="M59.3503183,3.27056459 L38.2088584,11.0587263 C37.5370504,11.3055311 37.0915544,11.9452634 37.0915544,12.66073 L37.0995733,45.357466 C37.0995733,46.146885 36.9766164,46.8561147 36.7235747,47.5252497 C36.4794428,48.168546 36.1560127,48.7075962 35.7363554,49.1718031 C35.3897595,49.5460197 34.9487185,49.8596489 34.4203602,50.0930889 C33.9080397,50.3194009 33.3369138,50.4289929 32.6793617,50.4307749 C32.6838166,50.4307749 32.6864896,50.4316659 32.6909446,50.4316659 L32.6677788,50.4316659 C32.6713427,50.4316659 32.6749067,50.4307749 32.6793617,50.4307749 C32.0218095,50.4289929 31.4506836,50.3194009 30.9374722,50.0930889 C30.4100049,49.8596489 29.9680728,49.5460197 29.6223679,49.1718031 C29.2018196,48.7075962 28.8783895,48.168546 28.6351486,47.5252497 C28.3821069,46.8561147 28.25915,46.146885 28.25915,45.357466 L28.2671689,12.6295453 C28.2671689,11.9140787 27.8207819,11.2743464 27.1480829,11.0275416 L6.00929602,3.26789162 C4.9891101,2.89367495 3.90744572,3.65101821 3.91188697,4.73802853 L3.91188697,8.50157904 L21.4225678,11.6592549 C22.980913,11.9408084 24.1142549,13.2977893 24.1124729,14.8810823 L24.0893071,44.3417351 C24.0893071,45.9624496 24.3387849,47.4085298 24.8511053,48.7681837 C25.338478,50.0565582 25.9826653,51.1319856 26.8148518,52.0532714 C27.467949,52.7607191 28.3090455,53.3461009 29.3078477,53.788033 C31.1201255,54.5899258 34.2385978,54.5925988 36.0508756,53.788924 C37.0478958,53.3469919 37.8916653,52.7589371 38.5527814,52.0416885 C39.3760581,51.1319856 40.0184633,50.0565582 40.504945,48.7655107 C41.0199384,47.4112027 41.2694162,45.9624496 41.2694162,44.3399531 L41.2453594,14.8864282 C41.2444684,13.3004623 42.3795923,11.9408084 43.9406104,11.6592549 L61.4486096,8.50068804 L61.4486096,4.73802853 C61.4512776,3.65101821 60.3696132,2.89456594 59.3503183,3.27056459" id="Fill-23" fill="#FFFFFF" mask="url(#mask-2)"></path>
                <path d="M14.229678,63.323341 C16.5230915,65.8136639 19.2628922,67.7685005 22.3813644,69.1441922 C23.5129243,69.6422568 24.6881429,70.0538951 25.8918732,70.3737613 C26.2651988,70.4726614 26.249161,71.0010197 25.8713803,71.075863 L2.00793973,75.7419885 C0.842522102,75.9504806 -0.175881835,74.9383136 0.0254823732,73.771114 L4.01801784,50.6587797 C4.15968558,49.8845076 4.22918296,49.0995436 4.05009355,48.3635842 C3.99574304,48.1408361 4.17305046,47.92878 4.40203542,47.92878 L5.82940472,47.92878 C6.63575254,47.92878 7.33874529,48.49456 7.49377791,49.285761 C7.87155854,51.2049579 8.35536724,52.9949609 9.00668244,54.7083387 C10.2317965,57.9542228 11.9906149,60.854402 14.229678,63.323341" id="Fill-24" fill="#FFFFFF" mask="url(#mask-2)"></path>
            </g>
        </g>
    </g>
</svg>